<svg xmlns="http://www.w3.org/2000/svg" width="14" height="15" viewBox="0 0 14 15">
    <path fill="#798AAB" fill-rule="evenodd" d="M.838 5.65A4.874 4.874 0 0 1 5.88.946a4.874 4.874 0 0 1 4.702 5.042 4.793 4.793 0 0 1-.843 2.576l3.556 3.797c.203.218.299.508.29.778a1.07 1.07 0 0 1-.343.756 1.09 1.09 0 0 1-1.534-.053l-3.54-3.813a4.793 4.793 0 0 1-2.628.661A4.874 4.874 0 0 1 .838 5.65zm8.12.283A3.256 3.256 0 0 0 5.823 2.57a3.256 3.256 0 0 0-3.361 3.135 3.256 3.256 0 0 0 3.134 3.361 3.256 3.256 0 0 0 3.362-3.134z"/>
</svg>
