<svg width="28" height="26" viewBox="0 0 28 26" fill="none" xmlns="http://www.w3.org/2000/svg">
<path d="M20.4272 0.897461C17.9021 0.897461 15.6914 2.04665 14.3133 3.98914C12.9352 2.04665 10.7244 0.897461 8.19939 0.897461C6.18942 0.899859 4.26242 1.74597 2.84116 3.25017C1.41989 4.75437 0.62043 6.79382 0.618164 8.92108C0.618164 17.98 13.3094 25.3126 13.8499 25.6154C13.9923 25.6965 14.1515 25.7389 14.3133 25.7389C14.475 25.7389 14.6343 25.6965 14.7767 25.6154C15.3172 25.3126 28.0084 17.98 28.0084 8.92108C28.0062 6.79382 27.2067 4.75437 25.7854 3.25017C24.3642 1.74597 22.4372 0.899859 20.4272 0.897461ZM14.3133 23.5189C12.0805 22.1419 2.57461 15.8693 2.57461 8.92108C2.57655 7.34287 3.16978 5.8299 4.22422 4.71394C5.27865 3.59798 6.70821 2.97013 8.19939 2.96807C10.5777 2.96807 12.5745 4.30879 13.4084 6.46223C13.4821 6.65211 13.6075 6.81453 13.7686 6.92883C13.9297 7.04312 14.1193 7.10415 14.3133 7.10415C14.5073 7.10415 14.6968 7.04312 14.858 6.92883C15.0191 6.81453 15.1444 6.65211 15.2181 6.46223C16.0521 4.30491 18.0489 2.96807 20.4272 2.96807C21.9184 2.97013 23.3479 3.59798 24.4024 4.71394C25.4568 5.8299 26.05 7.34287 26.052 8.92108C26.052 15.8589 16.5436 22.1406 14.3133 23.5189Z" fill="black"/>
</svg>
