<svg width="50" height="61" viewBox="0 0 50 61" fill="none" xmlns="http://www.w3.org/2000/svg">
<path d="M36.8908 0.220944C36.7633 0.0784443 32.1695 0.277194 28.172 4.61594C24.1745 8.95094 24.7895 13.9234 24.8795 14.0509C24.9695 14.1784 30.5795 14.3772 34.1608 9.33344C37.742 4.28969 37.0183 0.367194 36.8908 0.220944ZM49.3183 44.2197C49.1383 43.8597 40.5995 39.5922 41.3945 31.3872C42.1895 23.1822 47.6758 20.9284 47.762 20.6847C47.8483 20.4409 45.5233 17.7222 43.0595 16.3459C41.2502 15.3766 39.2484 14.8207 37.1983 14.7184C36.7933 14.7072 35.387 14.3622 32.4958 15.1534C30.5908 15.6747 26.297 17.3622 25.1158 17.4297C23.9308 17.4972 20.4058 15.4722 16.6145 14.9359C14.1883 14.4672 11.6158 15.4272 9.77453 16.1659C7.93703 16.9009 4.44203 18.9934 1.99703 24.5547C-0.447971 30.1122 0.830779 38.9172 1.74578 41.6547C2.66078 44.3922 4.08953 48.8697 6.51953 52.1397C8.67953 55.8297 11.5445 58.3909 12.7408 59.2609C13.937 60.1309 17.312 60.7084 19.652 59.5122C21.5345 58.3572 24.932 57.6934 26.2745 57.7422C27.6133 57.7909 30.2533 58.3197 32.957 59.7634C35.0983 60.5022 37.1233 60.1947 39.152 59.3697C41.1808 58.5409 44.117 55.3984 47.5445 49.0272C48.8445 46.0647 49.4358 44.4622 49.3183 44.2197Z" fill="black"/>
</svg>
