<svg width="24" height="25" viewBox="0 0 24 25" fill="none" xmlns="http://www.w3.org/2000/svg">
<path d="M11.8293 0.0975342C9.26246 0.0975342 6.80078 1.07899 4.98577 2.826C3.17076 4.573 2.1511 6.94245 2.1511 9.41309V14.3845L0.0767452 19.3797C0.0115498 19.5368 -0.0126601 19.7068 0.00623396 19.875C0.025128 20.0432 0.08655 20.2043 0.185126 20.3443C0.283702 20.4843 0.416428 20.599 0.57169 20.6782C0.726952 20.7574 0.900019 20.7988 1.07575 20.7988H7.52786C7.52786 23.0935 9.44522 24.939 11.8293 24.939C14.2133 24.939 16.1307 23.0935 16.1307 20.7988H22.5828C22.7585 20.7988 22.9316 20.7574 23.0869 20.6782C23.2421 20.599 23.3748 20.4843 23.4734 20.3443C23.572 20.2043 23.6334 20.0432 23.6523 19.875C23.6712 19.7068 23.647 19.5368 23.5818 19.3797L21.5074 14.3845V9.41309C21.5074 6.94245 20.4878 4.573 18.6728 2.826C16.8578 1.07899 14.3961 0.0975342 11.8293 0.0975342ZM13.98 20.7988C13.98 21.9497 13.0251 22.8689 11.8293 22.8689C10.6335 22.8689 9.67857 21.9497 9.67857 20.7988H13.98ZM4.3018 9.41309C4.3018 7.49148 5.09488 5.64858 6.50655 4.28979C7.91822 2.93101 9.83286 2.16766 11.8293 2.16766C13.8257 2.16766 15.7403 2.93101 17.152 4.28979C18.5637 5.64858 19.3567 7.49148 19.3567 9.41309V14.5832C19.3566 14.7147 19.3825 14.8451 19.4331 14.9672L20.9945 18.7286H2.66404L4.22545 14.9672C4.27588 14.8454 4.30179 14.7154 4.3018 14.5843V9.41309Z" fill="black"/>
</svg>
