<svg width="16" height="16" viewBox="0 0 16 16" fill="none" xmlns="http://www.w3.org/2000/svg">
<path d="M14.522 15.2735C14.1844 15.6111 13.7266 15.8007 13.2492 15.8007C12.7718 15.8007 12.314 15.6111 11.9765 15.2735L7.99996 10.7285L4.02346 15.272C3.85681 15.4414 3.65828 15.5761 3.43932 15.6684C3.22035 15.7607 2.98528 15.8087 2.74767 15.8096C2.51006 15.8106 2.27461 15.7645 2.0549 15.674C1.83519 15.5836 1.63557 15.4505 1.46755 15.2825C1.29953 15.1144 1.16644 14.9148 1.07596 14.6951C0.985477 14.4754 0.93939 14.2399 0.940358 14.0023C0.941325 13.7647 0.989328 13.5297 1.0816 13.3107C1.17387 13.0917 1.30858 12.8932 1.47796 12.7265L5.61496 8.00155L1.47646 3.27355C1.30708 3.1069 1.17237 2.90837 1.0801 2.6894C0.987828 2.47044 0.939825 2.23537 0.938858 1.99776C0.93789 1.76015 0.983978 1.5247 1.07446 1.30499C1.16494 1.08528 1.29803 0.885655 1.46605 0.717637C1.63407 0.54962 1.83369 0.416531 2.0534 0.326048C2.27311 0.235564 2.50856 0.189477 2.74617 0.190445C2.98378 0.191412 3.21885 0.239415 3.43782 0.331685C3.65678 0.423954 3.85531 0.558665 4.02196 0.728045L7.99996 5.27454L11.9765 0.728045C12.1431 0.558665 12.3416 0.423954 12.5606 0.331685C12.7796 0.239415 13.0146 0.191412 13.2522 0.190445C13.4899 0.189477 13.7253 0.235564 13.945 0.326048C14.1647 0.416531 14.3643 0.54962 14.5324 0.717637C14.7004 0.885655 14.8335 1.08528 14.924 1.30499C15.0144 1.5247 15.0605 1.76015 15.0596 1.99776C15.0586 2.23537 15.0106 2.47044 14.9183 2.6894C14.826 2.90837 14.6913 3.1069 14.522 3.27355L10.385 8.00155L14.522 12.7265C14.6893 12.8937 14.8221 13.0922 14.9127 13.3108C15.0032 13.5293 15.0499 13.7635 15.0499 14C15.0499 14.2366 15.0032 14.4708 14.9127 14.6893C14.8221 14.9079 14.6893 15.1064 14.522 15.2735Z" fill="black"/>
</svg>
