<svg width="61" height="61" viewBox="0 0 61 61" fill="none" xmlns="http://www.w3.org/2000/svg">
<g clip-path="url(#clip0_63_2754)">
<path d="M60.2302 30.1909C60.2302 13.6225 46.7987 0.190918 30.2302 0.190918C13.6618 0.190918 0.230225 13.6225 0.230225 30.1909C0.230225 45.1647 11.2008 57.576 25.5427 59.8265V38.8628H17.9255V30.1909H25.5427V23.5815C25.5427 16.0628 30.0216 11.9097 36.8743 11.9097C40.1565 11.9097 43.5896 12.4956 43.5896 12.4956V19.8784H39.8068C36.08 19.8784 34.9177 22.191 34.9177 24.5636V30.1909H43.238L41.908 38.8628H34.9177V59.8265C49.2596 57.576 60.2302 45.1649 60.2302 30.1909Z" fill="#1877F2"/>
<path d="M41.908 38.8628L43.238 30.1909H34.9177V24.5636C34.9177 22.1908 36.08 19.8784 39.8068 19.8784H43.5896V12.4956C43.5896 12.4956 40.1565 11.9097 36.8741 11.9097C30.0216 11.9097 25.5427 16.0628 25.5427 23.5815V30.1909H17.9255V38.8628H25.5427V59.8265C27.0934 60.0694 28.6606 60.1913 30.2302 60.1909C31.7998 60.1913 33.3671 60.0694 34.9177 59.8265V38.8628H41.908Z" fill="white"/>
</g>
<defs>
<clipPath id="clip0_63_2754">
<rect width="60" height="60" fill="white" transform="translate(0.230225 0.190918)"/>
</clipPath>
</defs>
</svg>
