<svg width="63" height="63" viewBox="0 0 63 63" fill="none" xmlns="http://www.w3.org/2000/svg">
<g clip-path="url(#clip0_63_2748)">
<path d="M22.1005 2.23008C15.9057 4.3791 10.5634 8.45801 6.85814 13.8677C3.1529 19.2774 1.28008 25.7327 1.51477 32.2854C1.74945 38.8381 4.07927 45.1429 8.16201 50.2736C12.2448 55.4044 17.8652 59.0907 24.1978 60.791C29.3318 62.1158 34.7108 62.1739 39.8722 60.9606C44.548 59.9103 48.8708 57.6637 52.4175 54.4409C56.1089 50.9841 58.7882 46.5866 60.1675 41.7212C61.6668 36.4302 61.9335 30.866 60.9474 25.4559H32.1174V37.4151H48.8138C48.4801 39.3225 47.765 41.143 46.7113 42.7676C45.6577 44.3922 44.2871 45.7875 42.6816 46.8701C40.6428 48.2187 38.3445 49.1262 35.9342 49.5341C33.5169 49.9836 31.0375 49.9836 28.6202 49.5341C26.1702 49.0276 23.8525 48.0164 21.8147 46.5649C18.5411 44.2476 16.083 40.9555 14.7913 37.1584C13.4777 33.2901 13.4777 29.0965 14.7913 25.2282C15.7107 22.5168 17.2308 20.048 19.2378 18.0062C21.5347 15.6267 24.4426 13.9258 27.6425 13.0901C30.8424 12.2545 34.2106 12.3164 37.3777 13.269C39.8517 14.0284 42.1141 15.3554 43.9846 17.144C45.8672 15.2711 47.7465 13.3933 49.6227 11.5107C50.5914 10.4984 51.6474 9.53446 52.6016 8.49789C49.7465 5.84098 46.3952 3.77358 42.7397 2.41414C36.083 -0.00293618 28.7993 -0.0678929 22.1005 2.23008Z" fill="white"/>
<path d="M22.1005 2.22999C28.7987 -0.0695422 36.0824 -0.00629532 42.7397 2.40921C46.3958 3.77788 49.7456 5.85524 52.5967 8.52203C51.628 9.55859 50.6059 10.5273 49.6178 11.5348C47.7384 13.411 45.8607 15.2807 43.9845 17.1439C42.1141 15.3553 39.8517 14.0284 37.3776 13.2689C34.2116 12.3129 30.8435 12.2475 27.6428 13.0797C24.442 13.9119 21.5323 15.6097 19.233 17.9867C17.2259 20.0285 15.7059 22.4973 14.7864 25.2087L4.7453 17.4345C8.3394 10.3072 14.5624 4.85542 22.1005 2.22999Z" fill="#E33629"/>
<path d="M2.08126 25.1361C2.62096 22.4614 3.51697 19.8711 4.74533 17.4346L14.7864 25.2282C13.4729 29.0964 13.4729 33.2901 14.7864 37.1583C11.441 39.7417 8.09397 42.3379 4.74533 44.9471C1.67027 38.8261 0.732437 31.852 2.08126 25.1361Z" fill="#F8BD00"/>
<path d="M32.1173 25.4512H60.9473C61.9335 30.8613 61.6667 36.4255 60.1675 41.7165C58.7882 46.5819 56.1088 50.9794 52.4175 54.4362C49.177 51.9077 45.922 49.3987 42.6815 46.8702C44.2881 45.7866 45.6593 44.3897 46.713 42.7634C47.7668 41.137 48.4813 39.3147 48.8137 37.4055H32.1173C32.1125 33.424 32.1173 29.4376 32.1173 25.4512Z" fill="#587DBD"/>
<path d="M4.74048 44.947C8.08912 42.3636 11.4362 39.7674 14.7816 37.1582C16.0759 40.9567 18.5374 44.2489 21.8147 46.5648C23.8588 48.0095 26.1815 49.0125 28.6347 49.5098C31.052 49.9592 33.5315 49.9592 35.9488 49.5098C38.359 49.1018 40.6573 48.1943 42.6961 46.8457C45.9366 49.3741 49.1916 51.8832 52.432 54.4116C48.8859 57.6363 44.563 59.8845 39.8867 60.9362C34.7253 62.1496 29.3464 62.0914 24.2124 60.7666C20.1518 59.6825 16.3591 57.7712 13.0717 55.1527C9.59228 52.3903 6.75042 48.909 4.74048 44.947Z" fill="#319F43"/>
</g>
<defs>
<clipPath id="clip0_63_2748">
<rect width="62" height="62" fill="white" transform="translate(0.502197 0.190918)"/>
</clipPath>
</defs>
</svg>
