<svg width="29" height="25" viewBox="0 0 29 25" fill="none" xmlns="http://www.w3.org/2000/svg">
<path d="M20.8369 0.0975342C18.2197 0.0975342 15.9282 1.24672 14.4998 3.18922C13.0714 1.24672 10.7799 0.0975342 8.1627 0.0975342C6.07935 0.0999319 4.082 0.946045 2.60884 2.45025C1.13569 3.95445 0.307036 5.99389 0.304688 8.12115C0.304688 17.1801 13.4593 24.5126 14.0195 24.8155C14.1671 24.8966 14.3322 24.939 14.4998 24.939C14.6675 24.939 14.8325 24.8966 14.9802 24.8155C15.5404 24.5126 28.6949 17.1801 28.6949 8.12115C28.6926 5.99389 27.8639 3.95445 26.3908 2.45025C24.9176 0.946045 22.9203 0.0999319 20.8369 0.0975342ZM14.4998 22.719C12.1855 21.342 2.33256 15.0693 2.33256 8.12115C2.33457 6.54295 2.94947 5.02997 4.04239 3.91401C5.13532 2.79805 6.61707 2.1702 8.1627 2.16815C10.6278 2.16815 12.6975 3.50887 13.5619 5.6623C13.6383 5.85219 13.7683 6.0146 13.9353 6.1289C14.1023 6.2432 14.2988 6.30422 14.4998 6.30422C14.7009 6.30422 14.8974 6.2432 15.0644 6.1289C15.2314 6.0146 15.3613 5.85219 15.4377 5.6623C16.3021 3.50498 18.3718 2.16815 20.8369 2.16815C22.3826 2.1702 23.8643 2.79805 24.9572 3.91401C26.0502 5.02997 26.6651 6.54295 26.6671 8.12115C26.6671 15.059 16.8116 21.3407 14.4998 22.719Z" fill="black"/>
</svg>
