<svg width="20" height="21" viewBox="0 0 20 21" fill="none" xmlns="http://www.w3.org/2000/svg">
<path fill-rule="evenodd" clip-rule="evenodd" d="M8.89605 0.444336C7.47736 0.444457 6.07928 0.78383 4.81844 1.43414C3.5576 2.08445 2.47056 3.02684 1.64802 4.18269C0.825473 5.33853 0.291278 6.67432 0.0899992 8.0786C-0.111279 9.48287 0.0261946 10.9149 0.490952 12.2553C0.955709 13.5956 1.73427 14.8054 2.76169 15.7836C3.7891 16.7619 5.03557 17.4803 6.3971 17.8789C7.75864 18.2775 9.19575 18.3447 10.5886 18.0749C11.9813 17.8052 13.2894 17.2063 14.4037 16.3282L18.2262 20.1505C18.4236 20.3412 18.688 20.4467 18.9624 20.4443C19.2368 20.4419 19.4994 20.3318 19.6934 20.1378C19.8875 19.9437 19.9976 19.6812 20 19.4068C20.0023 19.1324 19.8968 18.868 19.7062 18.6706L15.8837 14.8482C16.9178 13.5364 17.5617 11.9599 17.7417 10.2992C17.9216 8.63856 17.6304 6.96076 16.9013 5.45785C16.1722 3.95495 15.0347 2.68766 13.619 1.80103C12.2033 0.91439 10.5665 0.444224 8.89605 0.444336ZM2.09261 9.3408C2.09261 7.53649 2.8094 5.80607 4.08529 4.53023C5.36118 3.25438 7.09166 2.53762 8.89605 2.53762C10.7004 2.53762 12.4309 3.25438 13.7068 4.53023C14.9827 5.80607 15.6995 7.53649 15.6995 9.3408C15.6995 11.1451 14.9827 12.8755 13.7068 14.1514C12.4309 15.4272 10.7004 16.144 8.89605 16.144C7.09166 16.144 5.36118 15.4272 4.08529 14.1514C2.8094 12.8755 2.09261 11.1451 2.09261 9.3408Z" fill="black"/>
</svg>
