<svg width="22" height="23" viewBox="0 0 22 23" fill="none" xmlns="http://www.w3.org/2000/svg">
<path d="M5.34884 8.40532V5.34884C5.34884 4.64642 5.48719 3.95088 5.75599 3.30193C6.0248 2.65298 6.41879 2.06332 6.91548 1.56664C7.41216 1.06995 8.00181 0.675961 8.65076 0.407156C9.29972 0.138352 9.99526 0 10.6977 0C11.4001 0 12.0956 0.138352 12.7446 0.407156C13.3935 0.675961 13.9832 1.06995 14.4799 1.56664C14.9766 2.06332 15.3706 2.65298 15.6394 3.30193C15.9082 3.95088 16.0465 4.64642 16.0465 5.34884V8.40532C16.0465 10.2239 15.1403 11.8286 13.7542 12.7959V14.2478C13.7543 14.5532 13.846 14.8515 14.0174 15.1043C14.1887 15.357 14.4318 15.5527 14.7154 15.666L17.1392 16.6364C18.3956 17.1391 19.4727 18.0068 20.2313 19.1274C20.9899 20.2481 21.3954 21.5703 21.3953 22.9236H7.73727e-10C-2.04517e-05 21.5703 0.405436 20.2481 1.16407 19.1274C1.9227 18.0068 2.9997 17.1391 4.25615 16.6364L6.67993 15.666C6.96352 15.5527 7.20665 15.357 7.37799 15.1043C7.54933 14.8515 7.641 14.5532 7.6412 14.2478V12.7959C6.93306 12.3035 6.35468 11.6469 5.95549 10.8823C5.55629 10.1177 5.34814 9.26785 5.34884 8.40532Z" fill="white"/>
</svg>
